# xmcd
#
# Track frame offsets:
#	150
#	9979
#	19968
#	29118
#	40382
#	52276
#	61885
#	73842
#	84491
#	101001
#	111011
#	129198
#	140899
#	149141
#	167065
#	181707
#
# Disc length: 2571
#
# Revision: 2
# Processed by: cddbd v1.5.1PL0 Copyright (c) Steve Scherf et al.
# Submitted via: Axialis_AX_CDPlayer 2.6
# Normalized: r0:DSETVAR1,TDELIM( - ),TSWAP
#
DISCID=ee0a0910
DTITLE=Various Artist - Ultimate Classic Country Collection 3: Disc 1
DYEAR=1900
DGENRE=
TTITLE0=Johnny Cash - Ballad Of A Teenage Queen
TTITLE1=George Hamilton IV - Abilene
TTITLE2=Charley Pride - Kiss An Angel good Mornin'
TTITLE3=Don Gibson - Oh Lonesome Me
TTITLE4=Oak Ridge Boys - Elvira
TTITLE5=Dave Dudley - Six Days On The Road
TTITLE6=Dolly Parton - Jolene
TTITLE7=Hank Locklin - Please Help Me I'm Falling
TTITLE8=Kenny Rogers - Lucille
TTITLE9=Conway Twitty - It's Only Make Believe
TTITLE10=Don Williams - I Believe In You
TTITLE11=Tennessee Ernie Ford - Sixteen Tons
TTITLE12=Roger Miller - Dang Me
TTITLE13=Billy Swan - I Can Help
TTITLE14=Jeanne Pruett - Satin Sheets
TTITLE15=Stonewall Jackson - Waterloo
EXTD=
EXTT0=
EXTT1=
EXTT2=
EXTT3=
EXTT4=
EXTT5=
EXTT6=
EXTT7=
EXTT8=
EXTT9=
EXTT10=
EXTT11=
EXTT12=
EXTT13=
EXTT14=
EXTT15=
PLAYORDER=
